# xmcd
#
# Track frame offsets: 
#        150
#        34722
#        51837
#        69182
#        83141
#        97072
#        113887
#        128452
#        142760
#        167914
#        183371
#        201503
#
# Disc length: 2886 seconds
#
# Revision: 0
# Processed by: cddbd v1.5.2PL0 Copyright (c) Steve Scherf et al.
# Submitted via: ExactAudioCopy v0.95b3
#
DISCID=9f0b440c
DTITLE=Blur  - Midlife - A Beginners Guide To Blur - Disc 2
DYEAR=1900
DGENRE=
TTITLE0=Tender
TTITLE1=She's So High
TTITLE2=Chemical World
TTITLE3=Good Song
TTITLE4=Parklife
TTITLE5=Advert
TTITLE6=Popscene
TTITLE7=Stereotypes
TTITLE8=Trimm Trabb
TTITLE9=Badhead
TTITLE10=Strange News From Another Star
TTITLE11=Battery In Your Leg
EXTD=
EXTT0=
EXTT1=
EXTT2=
EXTT3=
EXTT4=
EXTT5=
EXTT6=
EXTT7=
EXTT8=
EXTT9=
EXTT10=
EXTT11=
PLAYORDER=
